# xmcd
#
# Track frame offsets:
#	182
#	13572
#	29072
#	42812
#	56685
#	69827
#	82655
#	97245
#	108730
#	123265
#	141302
#	157940
#	170535
#	186005
#	198520
#	214657
#
# Disc length: 3019 seconds
#
# Revision: 1
# Processed by: cddbd v1.5.2PL0 Copyright (c) Steve Scherf et al.
# Submitted via: audiograbber 1.83.01
#
DISCID=da0bc910
DTITLE=Tanya Tucker - Country Classics
DYEAR=1991
DGENRE=Country
TTITLE0=San Antonio Stroll
TTITLE1=Delta Dawn
TTITLE2=Don't Belive My Heart Can Stand Another You
TTITLE3=The Jamestown Ferry
TTITLE4=Here's Some Love
TTITLE5=Would You Lay With Me (In A Filed Of Stone)
TTITLE6=Blood Red And Going Down
TTITLE7=Pecos Promenade
TTITLE8=What's Your Mama's Name Child
TTITLE9=Texas (When I Die)
TTITLE10=I Won't Take Less Than Your Love
TTITLE11=Daddy And Home
TTITLE12=If It Don't Come Easy
TTITLE13=Strong Enough To Bend
TTITLE14=My Arms Stay Open Oll Night
TTITLE15=Walking Shoes
EXTD=(P) 1991 Capitol Records Inc. - EMI Records Ltd.
EXTT0=
EXTT1=
EXTT2=
EXTT3=
EXTT4=
EXTT5=
EXTT6=
EXTT7=
EXTT8=
EXTT9=
EXTT10=
EXTT11=
EXTT12=
EXTT13=
EXTT14=
EXTT15=
PLAYORDER=
